<svg width="18" height="18" viewBox="0 0 18 18" fill="none" xmlns="http://www.w3.org/2000/svg">
<g id="ant-design:star-filled">
<path id="Vector" d="M16.4798 6.04415L12.1078 5.41408L10.1534 1.4851C10.1 1.37752 10.0122 1.29044 9.90375 1.23751C9.63168 1.10432 9.30107 1.21531 9.16504 1.4851L7.21063 5.41408L2.83863 6.04415C2.71809 6.06122 2.60789 6.11757 2.52351 6.20294C2.42151 6.30691 2.3653 6.44678 2.36724 6.59182C2.36917 6.73686 2.4291 6.8752 2.53384 6.97645L5.69705 10.0346L4.94973 14.3529C4.9322 14.4533 4.94341 14.5567 4.98209 14.6511C5.02076 14.7456 5.08535 14.8274 5.16853 14.8873C5.25171 14.9472 5.35016 14.9828 5.4527 14.9901C5.55525 14.9973 5.65779 14.9759 5.74871 14.9283L9.65923 12.8896L13.5698 14.9283C13.6765 14.9847 13.8005 15.0034 13.9193 14.983C14.2189 14.9317 14.4204 14.65 14.3687 14.3529L13.6214 10.0346L16.7846 6.97645C16.8707 6.89278 16.9275 6.7835 16.9448 6.66397C16.9913 6.36516 16.7812 6.08854 16.4798 6.04415Z" fill="#F6D731"/>
</g>
</svg>
