<svg width="11" height="11" viewBox="0 0 11 11" fill="none" xmlns="http://www.w3.org/2000/svg">
<g id="fi-rr-home" clip-path="url(#clip0_139_434)">
<path id="Vector" d="M10.5971 4.15659L7.12067 0.679678C6.69041 0.250673 6.1076 0.00976562 5.50001 0.00976562C4.89241 0.00976562 4.3096 0.250673 3.87934 0.679678L0.402881 4.15659C0.274742 4.28391 0.17315 4.4354 0.103993 4.60227C0.0348366 4.76914 -0.000508934 4.94808 5.53643e-06 5.12872V9.62818C5.53643e-06 9.99285 0.144871 10.3426 0.402734 10.6004C0.660596 10.8583 1.01033 11.0032 1.37501 11.0032H9.62501C9.98968 11.0032 10.3394 10.8583 10.5973 10.6004C10.8551 10.3426 11 9.99285 11 9.62818V5.12872C11.0005 4.94808 10.9652 4.76914 10.896 4.60227C10.8269 4.4354 10.7253 4.28391 10.5971 4.15659ZM6.87501 10.0865H4.12501V8.28343C4.12501 7.91876 4.26987 7.56902 4.52773 7.31116C4.7856 7.05329 5.13533 6.90843 5.50001 6.90843C5.86468 6.90843 6.21442 7.05329 6.47228 7.31116C6.73014 7.56902 6.87501 7.91876 6.87501 8.28343V10.0865ZM10.0833 9.62818C10.0833 9.74974 10.0351 9.86631 9.9491 9.95227C9.86314 10.0382 9.74656 10.0865 9.62501 10.0865H7.79167V8.28343C7.79167 7.67564 7.55023 7.09275 7.12046 6.66297C6.69069 6.2332 6.10779 5.99176 5.50001 5.99176C4.89222 5.99176 4.30932 6.2332 3.87955 6.66297C3.44978 7.09275 3.20834 7.67564 3.20834 8.28343V10.0865H1.37501C1.25345 10.0865 1.13687 10.0382 1.05092 9.95227C0.964961 9.86631 0.916672 9.74974 0.916672 9.62818V5.12872C0.917097 5.00725 0.965342 4.89084 1.05096 4.80468L4.52742 1.32914C4.78579 1.07198 5.13548 0.92761 5.50001 0.92761C5.86453 0.92761 6.21423 1.07198 6.47259 1.32914L9.94905 4.80605C10.0343 4.89187 10.0826 5.00773 10.0833 5.12872V9.62818Z" fill="#142B33"/>
</g>
<defs>
<clipPath id="clip0_139_434">
<rect width="11" height="11" fill="white"/>
</clipPath>
</defs>
</svg>
