<svg width="14" height="13" viewBox="0 0 14 13" fill="none" xmlns="http://www.w3.org/2000/svg">
<g id="ion:diamond-outline" clip-path="url(#clip0_139_224)">
<path id="Vector" d="M1.31246 4.46875H12.6875M0.968475 4.77877L6.64914 11.6205C6.69042 11.6705 6.74354 11.711 6.80437 11.7389C6.86521 11.7667 6.93213 11.7812 6.99996 11.7812C7.06779 11.7812 7.13471 11.7667 7.19555 11.7389C7.25638 11.711 7.30949 11.6705 7.35078 11.6205L13.0314 4.77877C13.0873 4.71124 13.1197 4.62953 13.1243 4.54449C13.129 4.45945 13.1056 4.37512 13.0574 4.3027L11.1305 1.41451C11.0908 1.35474 11.0354 1.30538 10.9694 1.27112C10.9034 1.23686 10.829 1.21883 10.7534 1.21875H3.24648C3.17087 1.21883 3.09654 1.23686 3.03054 1.27112C2.96455 1.30538 2.90908 1.35474 2.86941 1.41451L0.942499 4.3027C0.894279 4.37512 0.870939 4.45945 0.875579 4.54449C0.880219 4.62953 0.91262 4.71124 0.968475 4.77877V4.77877Z" stroke="white" stroke-width="0.826531" stroke-linecap="round" stroke-linejoin="round"/>
<path id="Vector_2" d="M10.9375 1.625L9.625 4.46875L7 1.21875M3.0625 1.625L4.375 4.46875L7 1.21875M7 11.375L4.375 4.46875M7 11.375L9.625 4.46875" stroke="white" stroke-width="0.826531" stroke-linecap="round" stroke-linejoin="round"/>
</g>
<defs>
<clipPath id="clip0_139_224">
<rect width="14" height="13" fill="white"/>
</clipPath>
</defs>
</svg>
