<svg width="20" height="20" viewBox="0 0 20 20" fill="none" xmlns="http://www.w3.org/2000/svg">
<g id="Vector">
<path id="Vector_2" d="M17.7556 11.6883L17.7555 11.6883L17.7517 11.6935C16.7246 13.1109 15.4916 14.3398 14.2193 15.4225L14.2108 15.4297L14.2027 15.4373C13.6199 15.9798 12.6697 16.7936 11.7803 17.4774C11.3351 17.8196 10.9132 18.123 10.5649 18.3423C10.3903 18.4522 10.2421 18.5359 10.1238 18.5922C10.067 18.6193 10.0251 18.636 9.99628 18.6463C9.81899 18.5893 9.59712 18.4569 9.33289 18.2583C9.18558 18.1476 9.0405 18.0286 8.89433 17.9086L8.88701 17.9026C8.74867 17.789 8.60489 17.671 8.47127 17.5728C5.69518 15.4623 2.79025 12.9538 1.32774 10.254C0.115554 7.67359 0.165361 4.59858 1.93537 2.73545C4.28728 0.629167 7.81864 1.05232 9.60117 3.24751L9.99951 3.73807L10.3853 3.23758C10.8628 2.61814 11.4469 2.1314 12.1416 1.77402C15.0134 0.639201 17.9479 1.80566 19.144 4.35516C19.979 6.97049 19.2745 9.64811 17.7556 11.6883Z" fill="#142B33" fill-opacity="0.4" stroke="white"/>
</g>
</svg>
